<svg width="12" height="14" viewBox="0 0 12 14" fill="none" xmlns="http://www.w3.org/2000/svg">
<path d="M10 3.66661H9.76667C9.91881 3.35512 9.99858 3.01327 10 2.66661C10.002 2.20216 9.86499 1.74774 9.60654 1.36183C9.3481 0.975925 8.98007 0.6762 8.54983 0.501236C8.11959 0.326272 7.64683 0.284078 7.19241 0.380085C6.73799 0.476092 6.3227 0.705905 6 1.03994C5.6773 0.705905 5.26201 0.476092 4.80759 0.380085C4.35317 0.284078 3.88041 0.326272 3.45017 0.501236C3.01993 0.6762 2.6519 0.975925 2.39346 1.36183C2.13502 1.74774 1.99798 2.20216 2 2.66661C2.00142 3.01327 2.08119 3.35512 2.23333 3.66661H2C1.46957 3.66661 0.960859 3.87732 0.585787 4.2524C0.210714 4.62747 0 5.13618 0 5.66661V6.99994C0 7.17675 0.0702379 7.34632 0.195262 7.47135C0.320286 7.59637 0.489856 7.66661 0.666667 7.66661H1.33333V11.6666C1.33333 12.197 1.54405 12.7058 1.91912 13.0808C2.29419 13.4559 2.8029 13.6666 3.33333 13.6666H8.66667C9.1971 13.6666 9.70581 13.4559 10.0809 13.0808C10.456 12.7058 10.6667 12.197 10.6667 11.6666V7.66661H11.3333C11.5101 7.66661 11.6797 7.59637 11.8047 7.47135C11.9298 7.34632 12 7.17675 12 6.99994V5.66661C12 5.13618 11.7893 4.62747 11.4142 4.2524C11.0391 3.87732 10.5304 3.66661 10 3.66661ZM5.33333 12.3333H3.33333C3.15652 12.3333 2.98695 12.263 2.86193 12.138C2.7369 12.013 2.66667 11.8434 2.66667 11.6666V7.66661H5.33333V12.3333ZM5.33333 6.33328H1.33333V5.66661C1.33333 5.4898 1.40357 5.32023 1.5286 5.19521C1.65362 5.07018 1.82319 4.99994 2 4.99994H5.33333V6.33328ZM5.33333 3.66661H4.33333C4.13555 3.66661 3.94221 3.60796 3.77776 3.49808C3.61331 3.3882 3.48514 3.23202 3.40945 3.04929C3.33377 2.86657 3.31396 2.6655 3.35255 2.47152C3.39113 2.27754 3.48637 2.09936 3.62623 1.9595C3.76608 1.81965 3.94426 1.72441 4.13824 1.68582C4.33222 1.64724 4.53329 1.66704 4.71602 1.74273C4.89874 1.81842 5.05492 1.94659 5.1648 2.11104C5.27468 2.27549 5.33333 2.46883 5.33333 2.66661V3.66661ZM6.66667 2.66661C6.66667 2.46883 6.72532 2.27549 6.8352 2.11104C6.94508 1.94659 7.10126 1.81842 7.28398 1.74273C7.46671 1.66704 7.66778 1.64724 7.86176 1.68582C8.05574 1.72441 8.23392 1.81965 8.37377 1.9595C8.51363 2.09936 8.60887 2.27754 8.64745 2.47152C8.68604 2.6655 8.66623 2.86657 8.59055 3.04929C8.51486 3.23202 8.38669 3.3882 8.22224 3.49808C8.05779 3.60796 7.86445 3.66661 7.66667 3.66661H6.66667V2.66661ZM9.33333 11.6666C9.33333 11.8434 9.2631 12.013 9.13807 12.138C9.01305 12.263 8.84348 12.3333 8.66667 12.3333H6.66667V7.66661H9.33333V11.6666ZM10.6667 6.33328H6.66667V4.99994H10C10.1768 4.99994 10.3464 5.07018 10.4714 5.19521C10.5964 5.32023 10.6667 5.4898 10.6667 5.66661V6.33328Z" fill="#4C61D0"/>
</svg>
